<svg xmlns="http://www.w3.org/2000/svg" viewBox="0 0 64 64" role="img" aria-label="CodeLovers logo">
  <defs>
    <linearGradient id="codelovers-gradient" x1="12%" x2="88%" y1="16%" y2="84%">
      <stop offset="0%" stop-color="#f43f5e"/>
      <stop offset="55%" stop-color="#fb923c"/>
      <stop offset="100%" stop-color="#fde68a"/>
    </linearGradient>
  </defs>
  <rect width="64" height="64" rx="18" fill="url(#codelovers-gradient)"/>
  <g fill="none" stroke="#fff" stroke-linecap="round" stroke-linejoin="round" stroke-width="3">
    <path d="M18 18c-4 2.8-6 8.7-6 14s2 11.2 6 14"/>
    <path d="M46 18c4 2.8 6 8.7 6 14s-2 11.2-6 14"/>
    <path d="M32 22c6.6 0 12 5.2 12 11.6 0 9.2-12 18.4-12 18.4S20 42.8 20 33.6C20 27.2 25.4 22 32 22Z"/>
    <path d="M28.5 30.5 26 27l2.5-3.5"/>
    <path d="M35.5 30.5 38 27l-2.5-3.5"/>
  </g>
</svg>
